<?xml version="1.0" standalone="no"?>
<!DOCTYPE svg PUBLIC "-//W3C//DTD SVG 20010904//EN"
 "http://www.w3.org/TR/2001/REC-SVG-20010904/DTD/svg10.dtd">
<svg version="1.0" xmlns="http://www.w3.org/2000/svg"
 width="234.000000pt" height="288.000000pt" viewBox="0 0 234.000000 288.000000"
 preserveAspectRatio="xMidYMid meet">

<g transform="translate(0.000000,288.000000) scale(0.100000,-0.100000)"
fill="#000000" stroke="none">
<path d="M1695 2663 c-22 -3 -44 -8 -49 -13 -5 -5 -1 -7 10 -4 10 2 60 8 109
13 72 7 78 8 30 8 -33 0 -78 -2 -100 -4z"/>
<path d="M638 2653 c29 -2 74 -2 100 0 26 2 2 3 -53 3 -55 0 -76 -1 -47 -3z"/>
<path d="M1883 2653 c9 -2 25 -2 35 0 9 3 1 5 -18 5 -19 0 -27 -2 -17 -5z"/>
<path d="M818 2643 c6 -2 18 -2 25 0 6 3 1 5 -13 5 -14 0 -19 -2 -12 -5z"/>
<path d="M1590 2640 c-18 -12 -2 -12 25 0 13 6 15 9 5 9 -8 0 -22 -4 -30 -9z"/>
<path d="M1958 2643 c7 -3 16 -2 19 1 4 3 -2 6 -13 5 -11 0 -14 -3 -6 -6z"/>
<path d="M458 2633 c7 -3 16 -2 19 1 4 3 -2 6 -13 5 -11 0 -14 -3 -6 -6z"/>
<path d="M868 2633 c7 -3 16 -2 19 1 4 3 -2 6 -13 5 -11 0 -14 -3 -6 -6z"/>
<path d="M960 2605 c14 -8 30 -14 35 -14 6 0 -1 6 -15 14 -14 8 -29 14 -35 14
-5 0 1 -6 15 -14z"/>
<path d="M1433 2595 c-29 -13 -53 -26 -53 -29 0 -3 24 5 53 18 28 13 59 26 67
29 13 5 13 5 0 6 -8 0 -39 -11 -67 -24z"/>
<path d="M2140 2417 l5 -192 3 184 c1 102 -1 188 -5 192 -5 5 -6 -78 -3 -184z"/>
<path d="M1014 2591 c3 -5 20 -14 38 -20 38 -13 26 0 -15 17 -16 7 -26 8 -23
3z"/>
<path d="M623 2583 c9 -2 25 -2 35 0 9 3 1 5 -18 5 -19 0 -27 -2 -17 -5z"/>
<path d="M698 2583 c6 -2 18 -2 25 0 6 3 1 5 -13 5 -14 0 -19 -2 -12 -5z"/>
<path d="M1658 2583 c7 -3 16 -2 19 1 4 3 -2 6 -13 5 -11 0 -14 -3 -6 -6z"/>
<path d="M1838 2583 c12 -2 30 -2 40 0 9 3 -1 5 -23 4 -22 0 -30 -2 -17 -4z"/>
<path d="M513 2573 c9 -2 23 -2 30 0 6 3 -1 5 -18 5 -16 0 -22 -2 -12 -5z"/>
<path d="M840 2570 c8 -5 20 -10 25 -10 6 0 3 5 -5 10 -8 5 -19 10 -25 10 -5
0 -3 -5 5 -10z"/>
<path d="M1608 2573 c7 -3 16 -2 19 1 4 3 -2 6 -13 5 -11 0 -14 -3 -6 -6z"/>
<path d="M1923 2573 c9 -2 25 -2 35 0 9 3 1 5 -18 5 -19 0 -27 -2 -17 -5z"/>
<path d="M1558 2563 c6 -2 18 -2 25 0 6 3 1 5 -13 5 -14 0 -19 -2 -12 -5z"/>
<path d="M2000 2560 c8 -5 20 -10 25 -10 6 0 3 5 -5 10 -8 5 -19 10 -25 10 -5
0 -3 -5 5 -10z"/>
<path d="M428 2553 c7 -3 16 -2 19 1 4 3 -2 6 -13 5 -11 0 -14 -3 -6 -6z"/>
<path d="M1104 2548 c10 -7 32 -24 48 -37 16 -13 31 -21 34 -18 6 6 -39 38
-76 56 -21 10 -22 9 -6 -1z"/>
<path d="M947 2539 c7 -7 15 -10 18 -7 3 3 -2 9 -12 12 -14 6 -15 5 -6 -5z"/>
<path d="M375 2045 c0 -259 1 -366 2 -238 2 127 2 339 0 470 -1 131 -2 27 -2
-232z"/>
<path d="M1050 2496 c0 -3 9 -10 20 -16 11 -6 20 -8 20 -6 0 3 -9 10 -20 16
-11 6 -20 8 -20 6z"/>
<path d="M1350 2480 c-14 -11 -29 -20 -33 -20 -9 0 -42 -30 -33 -30 7 0 106
62 106 66 0 9 -17 2 -40 -16z"/>
<path d="M2075 1960 c0 -300 1 -422 2 -272 2 149 2 395 0 545 -1 149 -2 27 -2
-273z"/>
<path d="M1110 2456 c0 -2 7 -7 16 -10 8 -3 12 -2 9 4 -6 10 -25 14 -25 6z"/>
<path d="M1220 2430 l-35 -7 43 -2 c27 0 41 3 37 9 -3 6 -7 9 -8 9 -1 -1 -18
-5 -37 -9z"/>
<path d="M927 2336 c-64 -23 -115 -63 -144 -113 l-28 -48 -3 -217 c-4 -242 1
-265 68 -342 37 -41 116 -86 153 -86 70 0 81 -8 116 -85 18 -41 39 -79 46 -85
15 -13 71 31 136 106 l42 49 93 7 c118 9 180 35 238 99 62 69 71 110 71 319 0
205 -10 250 -68 316 -77 87 -83 89 -402 91 -218 2 -288 0 -318 -11z m364 -162
c36 -18 59 -67 59 -124 l0 -40 -116 0 -116 0 4 61 c4 54 9 66 36 90 37 33 85
38 133 13z m-219 -258 c7 -57 36 -114 71 -140 40 -29 144 -29 184 0 37 27 73
99 73 147 0 31 3 38 18 35 22 -4 27 -52 12 -107 -14 -54 -74 -115 -127 -131
-36 -11 -42 -17 -45 -46 l-4 -34 48 0 c41 0 48 -3 48 -20 0 -19 -7 -20 -115
-20 -108 0 -115 1 -115 20 0 17 7 20 45 20 45 0 45 0 45 34 0 30 -4 35 -28 41
-82 18 -138 87 -148 183 -6 58 -5 62 13 62 17 0 21 -8 25 -44z m271 -9 c-1
-31 -8 -56 -20 -69 -54 -61 -144 -52 -180 17 -15 28 -25 90 -16 99 4 3 54 5
112 4 l106 -3 -2 -48z"/>
<path d="M2143 1950 c0 -25 2 -35 4 -22 2 12 2 32 0 45 -2 12 -4 2 -4 -23z"/>
<path d="M563 1383 c15 -2 39 -2 55 0 15 2 2 4 -28 4 -30 0 -43 -2 -27 -4z"/>
<path d="M1788 1383 c23 -2 59 -2 80 0 20 2 1 4 -43 4 -44 0 -61 -2 -37 -4z"/>
<path d="M2143 1340 c0 -30 2 -43 4 -27 2 15 2 39 0 55 -2 15 -4 2 -4 -28z"/>
<path d="M453 1373 c9 -2 25 -2 35 0 9 3 1 5 -18 5 -19 0 -27 -2 -17 -5z"/>
<path d="M743 1373 c9 -2 25 -2 35 0 9 3 1 5 -18 5 -19 0 -27 -2 -17 -5z"/>
<path d="M1653 1373 c9 -2 25 -2 35 0 9 3 1 5 -18 5 -19 0 -27 -2 -17 -5z"/>
<path d="M1978 1373 c7 -3 16 -2 19 1 4 3 -2 6 -13 5 -11 0 -14 -3 -6 -6z"/>
<path d="M408 1363 c7 -3 16 -2 19 1 4 3 -2 6 -13 5 -11 0 -14 -3 -6 -6z"/>
<path d="M830 1360 c14 -4 34 -8 45 -8 16 0 15 2 -5 8 -14 4 -34 8 -45 8 -16
0 -15 -2 5 -8z"/>
<path d="M1608 1363 c7 -3 16 -2 19 1 4 3 -2 6 -13 5 -11 0 -14 -3 -6 -6z"/>
<path d="M1568 1353 c7 -3 16 -2 19 1 4 3 -2 6 -13 5 -11 0 -14 -3 -6 -6z"/>
<path d="M908 1343 c7 -3 16 -2 19 1 4 3 -2 6 -13 5 -11 0 -14 -3 -6 -6z"/>
<path d="M1510 1340 c-18 -12 -2 -12 25 0 13 6 15 9 5 9 -8 0 -22 -4 -30 -9z"/>
<path d="M935 1330 c-3 -6 1 -7 9 -4 18 7 21 14 7 14 -6 0 -13 -4 -16 -10z"/>
<path d="M980 1320 c8 -5 20 -10 25 -10 6 0 3 5 -5 10 -8 5 -19 10 -25 10 -5
0 -3 -5 5 -10z"/>
<path d="M548 1313 c34 -2 88 -2 120 0 31 2 3 3 -63 3 -66 0 -92 -1 -57 -3z"/>
<path d="M1411 1304 c-19 -8 -32 -17 -29 -19 5 -5 68 23 68 31 0 5 0 5 -39
-12z"/>
<path d="M1808 1313 c23 -2 59 -2 80 0 20 2 1 4 -43 4 -44 0 -61 -2 -37 -4z"/>
<path d="M433 1303 c9 -2 25 -2 35 0 9 3 1 5 -18 5 -19 0 -27 -2 -17 -5z"/>
<path d="M748 1303 c6 -2 18 -2 25 0 6 3 1 5 -13 5 -14 0 -19 -2 -12 -5z"/>
<path d="M1693 1303 c9 -2 23 -2 30 0 6 3 -1 5 -18 5 -16 0 -22 -2 -12 -5z"/>
<path d="M1958 1303 c12 -2 30 -2 40 0 9 3 -1 5 -23 4 -22 0 -30 -2 -17 -4z"/>
<path d="M378 1293 c6 -2 18 -2 25 0 6 3 1 5 -13 5 -14 0 -19 -2 -12 -5z"/>
<path d="M847 1289 c7 -7 15 -10 18 -7 3 3 -2 9 -12 12 -14 6 -15 5 -6 -5z"/>
<path d="M1628 1293 c7 -3 16 -2 19 1 4 3 -2 6 -13 5 -11 0 -14 -3 -6 -6z"/>
<path d="M2028 1293 c7 -3 16 -2 19 1 4 3 -2 6 -13 5 -11 0 -14 -3 -6 -6z"/>
<path d="M330 1280 c-23 -7 -23 -8 -3 -9 12 -1 25 4 28 9 3 6 5 10 3 9 -2 -1
-14 -5 -28 -9z"/>
<path d="M1555 1280 c-13 -5 -14 -9 -5 -9 8 0 24 4 35 9 13 5 14 9 5 9 -8 0
-24 -4 -35 -9z"/>
<path d="M890 1276 c0 -2 9 -6 20 -9 11 -3 18 -1 14 4 -5 9 -34 13 -34 5z"/>
<path d="M2118 1273 c7 -3 16 -2 19 1 4 3 -2 6 -13 5 -11 0 -14 -3 -6 -6z"/>
<path d="M1286 1230 c-22 -17 -35 -30 -30 -30 9 1 83 59 74 59 -3 0 -23 -13
-44 -29z"/>
<path d="M1001 1236 c2 -2 15 -9 29 -15 24 -11 24 -11 6 3 -16 13 -49 24 -35
12z"/>
<path d="M1160 1225 c0 -2 10 -10 23 -16 20 -11 21 -11 8 4 -13 16 -31 23 -31
12z"/>
<path d="M1405 1223 c-11 -2 -36 -18 -55 -34 l-35 -30 42 25 c24 14 47 26 52
26 5 0 13 5 16 10 3 6 5 9 3 9 -2 -1 -12 -4 -23 -6z"/>
<path d="M1218 1193 c7 -3 16 -2 19 1 4 3 -2 6 -13 5 -11 0 -14 -3 -6 -6z"/>
<path d="M1126 1171 c-3 -4 2 -15 12 -23 52 -46 108 -50 149 -12 l28 26 -32
-21 c-17 -12 -42 -21 -56 -21 -30 0 -79 24 -69 34 4 4 0 6 -8 4 -8 -1 -14 3
-12 10 2 14 -4 16 -12 3z"/>
<path d="M500 770 l0 -250 175 0 175 0 -2 45 -2 45 -118 0 -118 0 0 50 0 50
110 0 110 0 0 50 0 50 -110 0 -110 0 0 55 0 55 121 0 120 0 -3 48 -3 47 -172
3 -173 2 0 -250z"/>
<path d="M990 770 l0 -250 170 0 170 0 0 50 0 49 -112 3 -113 3 -3 198 -2 197
-55 0 -55 0 0 -250z"/>
<path d="M1440 770 l0 -250 55 0 55 0 0 250 0 250 -55 0 -55 0 0 -250z"/>
<path d="M1642 968 l3 -53 70 -5 70 -5 0 -193 0 -192 58 0 57 0 0 195 0 195
80 0 80 0 0 55 0 55 -211 0 -210 0 3 -52z"/>
<path d="M310 337 l0 -74 40 2 c43 1 52 20 10 20 -18 1 -26 7 -28 23 -3 18 1
22 22 22 14 0 26 5 26 10 0 6 -11 10 -25 10 -18 0 -25 5 -25 20 0 20 9 24 43
21 9 -1 17 3 17 8 0 6 -18 11 -40 11 l-40 0 0 -73z"/>
<path d="M430 345 c0 -36 0 -67 0 -70 0 -3 3 -4 8 -2 4 1 6 9 5 17 -4 23 8 71
16 66 4 -3 17 -25 30 -50 12 -25 27 -46 32 -46 5 0 9 34 9 75 0 82 -17 104
-22 28 l-3 -48 -25 48 c-34 67 -50 62 -50 -18z"/>
<path d="M585 396 c-23 -17 -23 -91 2 -118 31 -34 83 -20 83 23 0 23 -4 29
-22 29 -17 0 -20 -3 -9 -9 17 -11 7 -41 -12 -41 -24 0 -38 27 -35 67 3 37 4
38 41 36 38 -2 50 10 21 21 -25 10 -49 7 -69 -8z"/>
<path d="M710 336 l0 -75 37 2 c46 3 58 27 14 27 l-31 0 0 60 c0 33 -4 60 -10
60 -6 0 -10 -31 -10 -74z"/>
<path d="M820 335 c0 -43 4 -75 10 -75 6 0 10 32 10 75 0 43 -4 75 -10 75 -6
0 -10 -32 -10 -75z"/>
<path d="M892 398 c-22 -22 -13 -48 23 -65 22 -11 35 -24 35 -36 0 -17 -5 -19
-35 -14 -38 6 -48 -7 -14 -18 28 -9 65 1 73 20 9 24 -3 42 -41 65 -33 19 -35
22 -20 37 13 14 19 14 32 3 17 -14 31 -8 20 9 -9 15 -58 14 -73 -1z"/>
<path d="M1010 334 c0 -47 4 -73 10 -69 6 3 10 19 10 36 0 26 3 29 30 29 27 0
30 -3 30 -29 0 -17 5 -33 10 -36 6 -4 10 22 10 69 0 44 -4 76 -10 76 -5 0 -10
-13 -10 -30 0 -27 -3 -30 -30 -30 -27 0 -30 3 -30 30 0 17 -4 30 -10 30 -6 0
-10 -32 -10 -76z"/>
<path d="M1200 341 c0 -39 5 -73 11 -76 13 -9 84 4 75 13 -4 3 -19 6 -34 7
-26 0 -27 2 -30 63 -4 85 -22 79 -22 -7z"/>
<path d="M1314 394 c3 -9 6 -41 6 -72 l0 -57 45 3 c52 5 51 22 -1 22 -27 0
-34 4 -34 20 0 16 7 20 30 20 17 0 30 5 30 10 0 6 -11 10 -25 10 -18 0 -25 5
-25 20 0 15 7 20 29 20 17 0 33 5 36 10 4 6 -14 10 -45 10 -43 0 -51 -3 -46
-16z"/>
<path d="M1450 358 c-7 -29 -17 -61 -21 -70 -6 -10 -5 -19 2 -23 6 -4 13 2 16
14 7 29 59 30 68 1 3 -11 11 -20 16 -20 11 0 9 6 -21 95 -23 69 -44 70 -60 3z
m40 -13 c0 -16 -6 -25 -15 -25 -16 0 -19 9 -9 34 9 25 24 19 24 -9z"/>
<path d="M1570 335 c0 -43 4 -75 10 -75 6 0 10 14 10 30 0 34 25 42 35 11 7
-23 33 -46 42 -38 3 4 -2 18 -11 32 -15 23 -15 28 -2 46 26 38 3 69 -51 69
l-33 0 0 -75z m68 33 c-2 -15 -10 -23 -23 -23 -13 0 -21 8 -23 23 -3 18 1 22
23 22 22 0 26 -4 23 -22z"/>
<path d="M1700 341 c0 -39 5 -73 10 -76 6 -4 10 14 10 47 1 52 1 52 18 32 9
-12 25 -36 34 -53 28 -50 38 -38 38 44 0 85 -17 103 -22 23 l-4 -53 -24 52
c-16 34 -31 53 -42 53 -16 0 -18 -10 -18 -69z"/>
<path d="M1850 335 c0 -43 4 -75 10 -75 6 0 10 32 10 75 0 43 -4 75 -10 75 -6
0 -10 -32 -10 -75z"/>
<path d="M1910 335 c0 -43 4 -75 10 -75 6 0 10 28 10 63 l1 62 32 -59 c18 -33
37 -60 42 -60 6 -1 11 31 13 72 2 43 -1 72 -7 72 -5 0 -11 -24 -13 -52 l-3
-53 -29 53 c-42 75 -56 69 -56 -23z"/>
<path d="M2067 392 c-24 -26 -22 -87 3 -112 22 -22 60 -26 78 -8 17 17 15 58
-3 58 -9 0 -15 -10 -15 -26 0 -21 -4 -25 -22 -22 -30 4 -46 48 -29 84 10 23
16 26 42 20 22 -4 29 -2 27 7 -7 20 -62 20 -81 -1z"/>
<path d="M313 120 c0 -36 2 -50 4 -32 2 17 2 47 0 65 -2 17 -4 3 -4 -33z"/>
<path d="M350 120 c0 -33 4 -60 10 -60 6 0 10 18 10 40 0 22 4 40 8 40 5 0 17
-18 27 -40 10 -22 22 -40 27 -40 4 0 7 28 6 63 l-1 62 -6 -48 -6 -48 -25 45
c-35 64 -50 60 -50 -14z"/>
<path d="M482 173 c13 -3 18 -18 21 -61 l3 -57 2 57 c2 44 6 58 20 61 9 3 -1
5 -23 5 -22 0 -32 -2 -23 -5z"/>
<path d="M570 120 l0 -60 35 0 c19 0 35 5 35 10 0 6 -11 10 -25 10 -33 0 -35
37 -2 43 l22 4 -22 2 c-13 0 -23 6 -23 11 0 6 0 13 -1 18 0 4 10 10 23 14 20
5 18 6 -9 7 l-33 1 0 -60z"/>
<path d="M669 158 c-1 -13 -2 -35 -3 -51 -1 -15 2 -33 6 -40 5 -7 8 -2 8 16 0
17 5 27 15 27 8 0 15 -4 15 -8 0 -5 6 -16 13 -26 12 -16 13 -11 13 40 l-1 59
-32 3 c-28 3 -33 0 -34 -20z m51 -8 c0 -13 -7 -20 -20 -20 -13 0 -20 7 -20 20
0 13 7 20 20 20 13 0 20 -7 20 -20z"/>
<path d="M787 127 c-19 -60 -21 -80 -6 -55 13 23 48 23 66 1 13 -17 14 -17 9
2 -21 85 -28 105 -40 105 -7 0 -20 -24 -29 -53z m43 -9 c0 -10 -7 -18 -15 -18
-17 0 -18 4 -8 38 4 18 8 20 14 10 5 -7 9 -21 9 -30z"/>
<path d="M890 161 c-31 -59 29 -135 69 -87 10 12 6 14 -21 13 -36 -2 -45 14
-33 60 5 21 10 24 30 19 14 -4 25 -2 25 4 0 19 -59 11 -70 -9z"/>
<path d="M1003 173 c13 -4 17 -15 17 -59 0 -30 5 -54 10 -54 6 0 10 24 10 54
0 44 4 55 18 59 9 3 -3 5 -28 5 -25 0 -37 -2 -27 -5z"/>
<path d="M1091 122 c-1 -40 3 -61 9 -57 12 7 12 72 0 100 -6 14 -9 1 -9 -43z"/>
<path d="M1152 120 c11 -33 24 -60 29 -60 4 0 15 23 24 52 17 60 18 68 6 68
-5 0 -12 -18 -16 -40 -9 -55 -19 -57 -33 -4 -7 24 -16 44 -21 44 -5 0 -1 -27
11 -60z"/>
<path d="M1250 120 l0 -60 35 0 c19 0 35 5 35 10 0 6 -13 10 -30 10 -36 0 -42
29 -8 38 l22 5 -23 9 c-30 11 -22 31 15 39 27 6 27 7 -8 8 l-38 1 0 -60z"/>
<path d="M1397 170 c18 -7 21 -17 21 -55 0 -26 3 -49 6 -53 3 -3 6 18 6 46 0
38 4 54 18 61 13 8 7 10 -28 10 -36 0 -41 -2 -23 -9z"/>
<path d="M1490 121 c0 -34 4 -61 10 -61 6 0 10 11 10 25 0 14 5 25 10 25 6 0
16 -11 22 -25 13 -28 34 -35 23 -7 -4 9 -7 24 -6 32 7 66 8 65 -31 68 l-38 3
0 -60z m56 21 c1 -15 -4 -22 -17 -22 -14 0 -19 7 -19 26 0 33 34 30 36 -4z"/>
<path d="M1615 130 c-9 -28 -14 -56 -12 -63 3 -7 6 -5 6 6 1 23 56 24 65 1 4
-9 9 -14 12 -12 10 11 -27 118 -41 118 -7 0 -21 -23 -30 -50z m45 -12 c0 -10
-7 -18 -15 -18 -16 0 -19 17 -9 45 5 13 8 14 15 3 5 -7 9 -21 9 -30z"/>
<path d="M1723 120 c0 -36 2 -50 4 -32 2 17 2 47 0 65 -2 17 -4 3 -4 -33z"/>
<path d="M1768 135 c-2 -25 0 -53 4 -63 4 -10 7 -1 7 26 1 23 4 42 9 42 4 0
16 -17 27 -38 11 -20 25 -36 30 -35 13 4 19 113 6 113 -5 0 -11 -19 -13 -42
l-3 -43 -23 43 c-12 23 -26 42 -31 42 -5 0 -11 -20 -13 -45z"/>
<path d="M1890 120 c0 -33 4 -60 10 -60 6 0 10 27 10 60 0 33 -4 60 -10 60 -6
0 -10 -27 -10 -60z"/>
<path d="M1942 118 c1 -40 3 -50 5 -28 7 53 19 57 42 11 12 -22 26 -41 31 -41
6 0 10 27 10 60 0 66 -17 83 -22 23 l-3 -38 -23 38 c-13 20 -28 37 -33 37 -5
0 -8 -28 -7 -62z"/>
<path d="M2072 168 c-17 -17 -15 -74 4 -93 9 -9 28 -15 43 -13 20 2 27 9 29
30 3 21 0 27 -12 22 -8 -3 -12 -12 -9 -21 4 -11 0 -14 -18 -11 -19 2 -25 10
-27 34 -4 38 20 63 43 44 12 -10 15 -10 15 4 0 19 -50 22 -68 4z"/>
</g>
</svg>
